<svg width="32" height="32" fill="none" xmlns="http://www.w3.org/2000/svg"><rect width="32" height="32" rx="4" fill="#EDEDED"/><g clip-path="url(#a)"><path d="M16 22.667a6.667 6.667 0 0 1-2-13.028v1.416a5.335 5.335 0 0 0 2 10.278A5.336 5.336 0 0 0 20.945 18h1.416A6.67 6.67 0 0 1 16 22.667Zm6.633-6h-7.3v-7.3a6.667 6.667 0 0 1 7.3 7.3Zm-5.966-5.959v4.625h4.625a5.336 5.336 0 0 0-4.625-4.625Z" fill="#000"/></g><defs><clipPath id="a"><path fill="#fff" transform="translate(8 8)" d="M0 0h16v16H0z"/></clipPath></defs></svg>