<svg width="40" height="40" fill="none" xmlns="http://www.w3.org/2000/svg"><g clip-path="url(#a)"><path d="m25.389 19 .801.48a.334.334 0 0 1 0 .573L20 23.767l-6.19-3.714a.334.334 0 0 1 0-.572l.801-.481L20 22.233 25.389 19Zm0 3.133.801.481a.333.333 0 0 1 0 .572l-5.847 3.508a.666.666 0 0 1-.686 0l-5.847-3.508a.334.334 0 0 1 0-.572l.801-.48L20 25.366l5.389-3.234Zm-5.046-9.26 5.847 3.508a.334.334 0 0 1 0 .572L20 20.667l-6.19-3.714a.334.334 0 0 1 0-.572l5.847-3.508a.666.666 0 0 1 .686 0Z" fill="#888"/></g><rect x=".5" y=".5" width="39" height="39" rx="19.5" stroke="#EFEFEF"/><defs><clipPath id="a"><path fill="#fff" transform="translate(12 12)" d="M0 0h16v16H0z"/></clipPath></defs></svg>