<svg width="16" height="18" fill="none" xmlns="http://www.w3.org/2000/svg"><path d="M6.295.842A8.325 8.325 0 0 1 9.705.84a3.327 3.327 0 0 0 1.628 2.385 3.328 3.328 0 0 0 2.881.218 8.325 8.325 0 0 1 1.703 2.954A3.327 3.327 0 0 0 14.667 9c0 1.053.488 1.992 1.251 2.603a8.368 8.368 0 0 1-1.705 2.953 3.329 3.329 0 0 0-4.508 2.6 8.326 8.326 0 0 1-3.41.004 3.328 3.328 0 0 0-3.044-2.825c-.499-.037-1 .038-1.465.22a8.324 8.324 0 0 1-1.703-2.954 3.327 3.327 0 0 0 1.25-2.602A3.327 3.327 0 0 0 .082 6.396a8.37 8.37 0 0 1 1.705-2.953A3.328 3.328 0 0 0 5.753 2.22c.282-.413.467-.883.542-1.377V.842ZM8 11.5a2.5 2.5 0 1 0 0-5 2.5 2.5 0 0 0 0 5Z" fill="#4671F5"/></svg>